<svg width="12" height="12" viewBox="0 0 12 12" fill="none" xmlns="http://www.w3.org/2000/svg">
<path fill-rule="evenodd" clip-rule="evenodd" d="M6.00008 11.9999C6.807 11.9999 7.5172 11.5857 7.92969 10.9584C8.20767 11.077 8.51368 11.1427 8.83504 11.1427C10.1095 11.1427 11.1427 10.1095 11.1427 8.83504C11.1427 8.5136 11.077 8.20751 10.9583 7.92947C11.5856 7.51697 11.9997 6.80681 11.9997 5.99994C11.9997 5.19306 11.5856 4.4829 10.9583 4.0704C11.077 3.79236 11.1427 3.48627 11.1427 3.16484C11.1427 1.89033 10.1095 0.857143 8.83504 0.857143C8.51364 0.857143 8.20759 0.922846 7.92958 1.04155C7.5171 0.41418 6.80688 0 5.99994 0C5.19296 0 4.48272 0.414211 4.07024 1.04162C3.79219 0.922872 3.48609 0.857143 3.16463 0.857143C1.89012 0.857143 0.856934 1.89033 0.856934 3.16484C0.856934 3.48627 0.922653 3.79236 1.04139 4.0704C0.414108 4.4829 0 5.19306 0 5.99994C0 6.80681 0.414108 7.51697 1.04139 7.92947C0.922654 8.20751 0.856934 8.5136 0.856934 8.83504C0.856934 10.1095 1.89012 11.1427 3.16463 11.1427C3.48613 11.1427 3.79227 11.077 4.07035 10.9582C4.48283 11.5856 5.19308 11.9999 6.00008 11.9999ZM7.85586 4.09061C8.08198 4.24911 8.1368 4.56091 7.9783 4.78704L6.3243 7.57328C6.241 7.69197 6.1329 7.79283 6.00609 7.86678C5.87893 7.94086 5.7363 7.98604 5.58815 7.99727C5.43969 8.00854 5.2918 7.98525 5.15497 7.93067C5.01779 7.87587 4.89576 7.79122 4.79631 7.68483L4.06585 6.80827C3.87725 6.60656 3.88788 6.29016 4.08958 6.10156C4.29129 5.91297 4.6077 5.92359 4.79629 6.1253L5.51354 6.98773L5.50559 6.99906C5.50291 7.00287 5.50231 7.00295 5.50231 7.00295L5.51577 7.02604L5.52209 7.01096L5.5257 7.00193C5.52786 7.00291 5.52851 7.00374 5.52683 7.00194L5.51354 6.98773L7.15944 4.21305C7.31794 3.98693 7.62974 3.93211 7.85586 4.09061ZM5.52209 7.01096L5.5257 7.00193C5.52299 7.00085 5.51817 6.99972 5.51251 7.00014L5.50807 7.0008L5.51278 7.00411L5.51939 7.00875L5.52209 7.01096ZM5.50807 7.0008C5.50549 7.00143 5.50231 7.00295 5.50231 7.00295L5.51577 7.02604L5.52209 7.01096L5.51939 7.00875L5.51278 7.00411L5.50807 7.0008Z" fill="#1CA8AF"/>
</svg>
